<svg width="299" height="267" viewBox="0 0 299 267" fill="none" xmlns="http://www.w3.org/2000/svg">
  <path d="M127.667 107.756C143.617 107.48 154.619 109.087 155.217 111.992C156.681 119.11 124.131 161.738 89.6875 197.816C82.0168 205.753 75.3765 212.048 74.8971 211.713C69.1435 207.686 84.6983 158.262 102.481 124.325C110.937 108.233 111.037 108.055 127.667 107.756Z" fill="currentColor"/>
  <path d="M200.667 78C216.533 80.5333 231.233 85.7333 241.5 90.8C264.5 93.5 259.5 90.8 256.933 112C253.93 136.804 245.2 161.867 230 178.267C207.867 202.267 182.533 212.933 144 214.267C124.933 214.933 103.333 213.2 100.933 210.8C100.267 210.133 106.267 202.667 115.467 192.667C130.4 176.667 131.467 175.867 135.333 176.667C147.467 179.467 150.8 179.867 159.467 180C186 180.133 205.067 165.2 206.4 143.2C207.067 132.667 206.8 132.4 190 134.8C183.067 135.733 177.067 136.133 176.667 135.733C176.267 135.333 178.267 131.467 181.2 127.333C190 114.8 188.4 106.933 176.267 101.6C172.133 99.8666 171.435 90.9333 137.301 90.8H112.5L83.5 93.5C72.0941 93.5 61 102.4 61 101.6C61 97.8666 92.9333 80.9333 118.667 78.8C127.867 78 137.733 77.0667 140.667 76.9333C156.667 75.6 189.867 76.1333 200.667 78Z" fill="currentColor"/>
</svg>
